<?xml version="1.0" encoding="utf-8"?>
<!-- Generator: Adobe Illustrator 23.0.0, SVG Export Plug-In . SVG Version: 6.00 Build 0)  -->
<svg version="1.1" id="katman_1" xmlns="http://www.w3.org/2000/svg" xmlns:xlink="http://www.w3.org/1999/xlink" x="0px" y="0px"
	 viewBox="0 0 36 36" style="enable-background:new 0 0 36 36;" xml:space="preserve">
<style type="text/css">
	.st0{fill:#E30917;}
	.st1{fill:#EEEEEE;}
</style>
<path class="st0" d="M36,27c0,2.2-1.8,4-4,4H4c-2.2,0-4-1.8-4-4V9c0-2.2,1.8-4,4-4h28c2.2,0,4,1.8,4,4V27z"/>
<path class="st1" d="M16,24c-3.3,0-6-2.7-6-6c0-3.3,2.7-6,6-6c1.3,0,2.5,0.4,3.5,1.1c-1.3-1.5-3.3-2.5-5.5-2.5
	c-4.1,0-7.4,3.3-7.4,7.4c0,4.1,3.3,7.4,7.4,7.4c2.2,0,4.2-1,5.5-2.5C18.5,23.6,17.3,24,16,24z M19.9,18.2l2.4,0.6l0.2,2.5l1.3-2.1
	l2.4,0.6l-1.6-1.9l1.3-2.1l-2.3,1L22,14.8l0.2,2.5L19.9,18.2z"/>
<rect class="st0" width="36" height="9.1"/>
<rect x="0" y="26.9" class="st0" width="36" height="9.1"/>
</svg>
